. 
 
http://www.torrenting.com          :     Once & For all ;)


               www . Torrenting . Com 

(((((((((((((= Enjoy No RAR releases =))))))))))))))))))))


...................................NFO:....................................

.[IMG]http://img827.imageshack.us/img827/4923/greeenu.jpg[/IMG]


[color=blue][size=5][b]Green.Guys.2011.DVDRip.XVID.AC3.HQ.Hive-CM8[/b][/size][/color]


[b] Thx Hive

CM8 Doing it right the first time :D

Source: DVDRip Freebee
thx

Encode:

technically its a rerip, but freebees rip was so good, that it looks like a dvd-r, so no need to wait for the disc itself.
great job freebee ;)
hope that some future dvdscr may be in this quality and not that low bitrated mp4 with aac audio thats usually available.
Keep in mind all BRRips are reencodes and thats ok lol
added brightness,sharpness,rgb and denoise
got very nice
enjoy

Video: 720x304 @bitrate 1700 2pass
Audio: English AC3 5.1 @448
Sample: yes included[/b]


[url]http://www.imdb.com/title/tt1514045/[/url]


General
Complete name                  : Green.Guys.2011.DVDRip.XVID.AC3.HQ.Hive-CM8.avi
Format                         : AVI
Format/Info                    : Audio Video Interleave
File size                      : 1.44 GiB
Duration                       : 1h 35mn
Overall bit rate               : 2 157 Kbps
Writing application            : Nandub v1.0rc2
Writing library                : Nandub build 1853/release

Video
ID                             : 0
Format                         : MPEG-4 Visual
Format profile                 : Advanced Simple@L5
Format settings, BVOP          : 2
Format settings, QPel          : Yes
Format settings, GMC           : No warppoints
Format settings, Matrix        : Default (H.263)
Muxing mode                    : Packed bitstream
Codec ID                       : XVID
Codec ID/Hint                  : XviD
Duration                       : 1h 35mn
Bit rate                       : 1 700 Kbps
Width                          : 720 pixels
Height                         : 304 pixels
Display aspect ratio           : 2.35:1
Frame rate                     : 23.976 fps
Color space                    : YUV
Chroma subsampling             : 4:2:0
Bit depth                      : 8 bits
Scan type                      : Progressive
Compression mode               : Lossy
Bits/(Pixel*Frame)             : 0.324
Stream size                    : 1.14 GiB (79%)
Writing library                : XviD 1.2.1 (UTC 2008-12-04)

Audio
ID                             : 1
Format                         : AC-3
Format/Info                    : Audio Coding 3
Mode extension                 : CM (complete main)
Codec ID                       : 2000
Duration                       : 1h 35mn
Bit rate mode                  : Constant
Bit rate                       : 448 Kbps
Channel(s)                     : 6 channels
Channel positions              : Front: L C R, Side: L R, LFE
Sampling rate                  : 48.0 KHz
Bit depth                      : 16 bits
Compression mode               : Lossy
Stream size                    : 307 MiB (21%)
Alignment                      : Split accross interleaves
Interleave, duration           : 42 ms (1.00 video frame)
Interleave, preload duration   : 500 ms



Four young con artists start a top-secret money laundering scheme - and are slowly torn 
apart by their own greed and corruption.


Kris Lemche	... 	Travis Howard
David J. Phillips	... 	Andrew Thomas
Christopher Redman	... 	Billy Adams
Darrel Davenport	... 	Levi Charles



[img]http://img513.imageshack.us/img513/5385/grgrggrrggrrgr.png[/img]
[img]http://img850.imageshack.us/img850/565/98704640.png[/img]
[img]http://img52.imageshack.us/img52/4462/grgrf.png[/img]
[img]http://img502.imageshack.us/img502/8342/grgrggrrgrgr.png[/img]
[img]http://img33.imageshack.us/img33/5303/grgrgr.png[/img]
[img]http://img196.imageshack.us/img196/7580/grgrgrgr.png[/img]
[img]http://img191.imageshack.us/img191/207/grgrgrgrgr.png[/img]
[img]http://img88.imageshack.us/img88/8159/grgrggrrggrgrrgr.png[/img]




Greetz

ViSiON,SPK,SceneLovers,SiC,SANTi,3LT0N,YanKeeS,MAGNET,THC,T0XiC,LKRG,Feel-Free,FLAWL3SS,
WBZ,BHRG,26K,NOVA,D2U,Rapeseed,SAFC,goldadvance,KaN1vE,Unevano,Pinnz,Wayne
Mr Hive,and most P2P groups
Great Work Guys :D

LOOKING FOR ANYTHING YOU WANT TO LOOK AND SOUND BETTER

CM8@hushmail.com